<?xml version="1.0" standalone="no"?>
<!DOCTYPE svg PUBLIC "-//W3C//DTD SVG 20010904//EN"
 "http://www.w3.org/TR/2001/REC-SVG-20010904/DTD/svg10.dtd">
<svg version="1.0" xmlns="http://www.w3.org/2000/svg"
 width="512.000000pt" height="512.000000pt" viewBox="0 0 512.000000 512.000000"
 preserveAspectRatio="xMidYMid meet">

<g transform="translate(0.000000,512.000000) scale(0.100000,-0.100000)"
fill="#000000" stroke="none">
<path d="M1443 4363 c-22 -16 -348 -277 -725 -581 -505 -406 -690 -561 -702
-586 -14 -31 -16 -148 -16 -1193 0 -1292 -5 -1201 69 -1250 l34 -23 521 0
c499 0 522 1 553 20 69 42 67 31 73 475 6 440 5 434 71 509 92 106 236 131
353 62 51 -30 78 -59 108 -116 23 -44 23 -50 28 -445 5 -389 6 -401 27 -435
45 -73 20 -70 607 -70 l527 0 40 38 c30 28 43 49 50 82 12 67 11 2248 -1 2308
-8 35 -21 59 -48 84 -60 58 -1379 1116 -1411 1133 -48 24 -112 19 -158 -12z"/>
<path d="M2482 4370 c-18 -11 -69 -50 -112 -86 l-80 -66 459 -369 c253 -203
480 -392 505 -420 54 -60 90 -133 106 -214 13 -70 9 -2411 -4 -2457 l-8 -28
318 0 c301 0 321 1 352 20 18 11 41 34 52 52 20 32 20 53 20 1203 0 1125 -1
1171 -19 1201 -17 28 -1353 1113 -1430 1161 -46 29 -114 30 -159 3z"/>
<path d="M3508 4367 c-50 -30 -188 -140 -185 -148 1 -4 202 -167 447 -364 245
-197 467 -378 493 -404 60 -57 114 -164 128 -251 15 -96 7 -2394 -8 -2437
l-12 -33 323 0 c319 0 323 0 357 23 74 49 69 -42 69 1250 0 1045 -2 1162 -16
1193 -12 25 -197 180 -702 586 -377 304 -703 565 -725 581 -51 35 -116 37
-169 4z"/>
</g>
</svg>
